<svg xmlns="http://www.w3.org/2000/svg" viewBox="0 0 640 640"><!--!Font Awesome Free v7.0.1 by @fontawesome - https://fontawesome.com License - https://fontawesome.com/license/free Copyright 2025 Fonticons, Inc.--><path d="M272 496C272 469.5 293.5 448 320 448C346.5 448 368 469.5 368 496C368 522.5 346.5 544 320 544C293.5 544 272 522.5 272 496zM200 390.2C188.3 403.5 168.1 404.7 154.8 393C141.5 381.3 140.3 361.1 152 347.8C193 301.4 253.1 272 320 272C386.9 272 447 301.4 488 347.8C499.7 361.1 498.4 381.3 485.2 393C472 404.7 451.7 403.4 440 390.2C410.6 356.9 367.8 336 320 336C272.2 336 229.4 356.9 200 390.2z"/></svg>
